<svg width="500" height="250" viewBox="0 0 500 250" fill="none" xmlns="http://www.w3.org/2000/svg">
<path d="M150.441 48.8029C150.649 55.7537 153.464 62.5642 158.092 67.4476C161.863 71.5064 166.915 74.1762 172.224 74.9073C176.25 75.4395 180.412 74.9365 184.188 73.3311C189.23 71.2198 193.556 67.2751 196.377 62.3478C198.704 58.3651 200.008 53.7536 200.281 49.0778C200.695 54.9408 202.634 60.719 206.158 65.2749C210.846 71.5649 218.338 75.3897 225.888 75.1061C231.49 74.9774 237 72.6468 241.217 68.7138C246.606 63.7836 249.933 56.3854 250.144 48.8088C250.588 55.0052 252.65 61.1343 256.513 65.8452C259.493 69.5764 263.452 72.4246 267.834 73.9043C273.039 75.6792 278.809 75.495 283.899 73.3779C288.828 71.3456 293.084 67.5558 295.929 62.8069C298.418 58.7277 299.793 53.9466 300.116 49.1012C300.538 55.8707 303.158 62.535 307.709 67.316C310.568 70.4595 314.207 72.755 318.126 74.0329C323.345 75.7085 329.101 75.4336 334.151 73.2346C338.976 71.138 343.146 67.392 345.92 62.687C348.314 58.7335 349.598 54.1308 350.033 49.4726C350.532 55.6105 352.761 61.6285 356.646 66.2253C359.993 70.2899 364.546 73.2288 369.492 74.4365C374.629 75.7436 380.169 75.1529 384.974 72.8135C388.575 71.0853 391.746 68.3921 394.208 65.1024C397.669 60.5085 399.657 54.7127 399.929 48.8351C400.137 51.6774 400.597 54.5168 401.519 57.2012C404.165 65.0849 410.304 71.6117 417.865 74.0007C423.73 75.9278 430.291 75.34 435.762 72.3573C443.975 68.0091 449.531 58.6136 449.794 48.8439C450.18 53.698 451.431 58.5347 453.942 62.6432C456.744 67.395 460.944 71.1935 465.832 73.2814C465.832 132.11 465.829 190.937 465.832 249.766C446.628 249.766 427.427 249.76 408.226 249.769C408.22 199.762 408.217 149.755 408.228 99.7512C380.503 99.76 352.777 99.7542 325.051 99.7542C325.057 149.758 325.062 199.762 325.049 249.769C226.567 249.763 128.082 249.766 29.5979 249.766C29.5814 191.434 29.6034 133.099 29.5897 74.7669C35.5592 73.7376 41.0578 70.1788 44.8094 65.1317C48.2487 60.5904 50.2285 54.8589 50.538 49.0398C50.7844 51.423 51.1048 53.815 51.8058 56.1047C54.3087 64.8539 61.1682 72.0737 69.512 74.3107C74.7668 75.7348 80.4818 75.264 85.4217 72.8427C89.8113 70.7724 93.5628 67.2634 96.1807 62.9823C98.7218 58.9469 100.064 54.1746 100.474 49.3614C100.745 51.7651 101.069 54.1805 101.824 56.476C104.289 64.5731 110.456 71.3368 118.093 73.9071C123.167 75.6441 128.775 75.4862 133.778 73.5358C138.975 71.4888 143.466 67.5236 146.385 62.5028C148.844 58.4118 150.055 53.6132 150.441 48.8029ZM66.2725 103.664C66.1657 117.653 66.2534 131.643 66.2314 145.629C66.2095 166.522 66.2479 187.416 66.2123 208.309C84.5701 208.274 102.931 208.309 121.291 208.295C178.109 208.312 234.927 208.271 291.745 208.315C291.811 203.797 291.756 199.276 291.772 194.756C291.764 164.397 291.789 134.037 291.761 103.676C216.597 103.667 141.435 103.676 66.2725 103.664Z" fill="#41210A" stroke="#41210A" stroke-width="0.0938"/>
<path d="M158.138 110.761C159.56 110.755 160.981 110.752 162.405 110.761C165.16 114.03 166.671 118.715 165.592 123.06C165.058 125.449 163.412 127.286 161.739 128.859C160.611 129.999 159.253 131.058 158.755 132.704C158.289 134.225 158.256 135.88 158.511 137.45C159.004 139.991 160.543 142.164 162.41 143.763C160.964 143.769 159.521 143.766 158.078 143.76C155.77 141.026 154.286 137.351 154.54 133.631C154.699 130.833 155.909 128.098 157.906 126.265C159.1 125.136 160.537 124.206 161.334 122.686C162.265 120.759 162.35 118.44 161.822 116.375C161.225 114.118 159.76 112.279 158.138 110.761Z" fill="#41210A" stroke="#41210A" stroke-width="0.0938"/>
<path d="M170.598 110.755C172.014 110.755 173.432 110.767 174.85 110.74C177.844 114.173 179.35 119.364 177.835 123.888C176.836 126.932 174.13 128.677 172.192 130.967C170.795 132.643 170.738 135.058 170.959 137.172C171.354 139.833 172.977 142.079 174.881 143.76C173.47 143.74 172.057 143.831 170.653 143.734C168.914 141.997 167.868 139.576 167.284 137.143C166.419 133.318 167.501 128.967 170.302 126.344C171.721 125.025 173.498 123.896 174.158 121.911C174.938 119.548 174.752 116.829 173.64 114.621C172.901 113.112 171.8 111.852 170.598 110.755Z" fill="#41210A" stroke="#41210A" stroke-width="0.0938"/>
<path d="M185.303 110.77C186.721 110.749 188.14 110.758 189.561 110.755C192.354 114.024 193.871 118.773 192.746 123.136C192.228 125.376 190.722 127.133 189.15 128.628C187.943 129.873 186.436 130.988 185.911 132.78C185.199 135.28 185.462 138.131 186.765 140.365C187.488 141.678 188.485 142.784 189.566 143.76C188.126 143.766 186.686 143.775 185.245 143.76C183.312 141.436 181.948 138.503 181.716 135.377C181.472 132.099 182.575 128.651 184.906 126.443C186.231 125.139 187.934 124.119 188.693 122.288C189.739 119.668 189.451 116.519 188.052 114.106C187.346 112.814 186.341 111.755 185.303 110.77Z" fill="#41210A" stroke="#41210A" stroke-width="0.0938"/>
<path d="M341.919 134.766C358.407 134.771 374.895 134.774 391.382 134.766C391.382 143.693 391.377 152.618 391.388 161.545C374.9 161.548 358.413 161.551 341.925 161.545C341.917 152.618 341.928 143.693 341.919 134.766ZM350.838 143.073C349.354 144.597 347.977 146.553 347.96 148.849C347.99 150.214 348.374 151.746 349.477 152.571C350.63 153.463 352.188 153.323 353.478 152.881C356.115 151.916 358.254 149.711 359.546 147.109C360.16 145.766 360.628 144.214 360.28 142.722C360.108 141.889 359.229 141.714 358.612 141.398C359.02 141.225 359.439 141.056 359.856 140.886C359.746 139.74 358.727 138.573 357.583 138.956C355.022 139.585 352.733 141.17 350.838 143.073ZM364.448 143.597C362.808 145.547 361.107 147.442 359.431 149.363C358.985 149.787 358.873 150.404 358.862 151.018C359.891 150.144 360.778 149.097 361.789 148.196C360.877 150.384 359.45 152.252 358.311 154.293C357.843 155.247 357.353 156.589 358.109 157.519C358.774 157.481 359.048 156.782 359.344 156.256C359.897 155.124 360.411 153.972 360.94 152.825C362.126 152.805 363.29 153.106 364.47 153.153C366.214 153.074 367.613 151.811 368.895 150.676C369.1 151.79 369.514 153.223 370.741 153.428C372.712 153.627 374.289 152.103 375.73 150.89C375.957 151.703 375.946 153.159 377.061 153.089C378.616 151.89 379.462 149.887 381.127 148.796C380.571 150.045 379.421 151.34 379.939 152.823C380.243 153.665 381.291 153.519 381.883 153.135C383.006 152.428 383.948 151.439 384.848 150.442C385.24 150.074 385.243 149.483 385.322 148.98C384.252 149.656 383.411 150.951 382.113 151.083C381.757 149.311 383.786 148.463 384.358 147.018C384.325 146.433 384.139 145.875 384.011 145.316C382.554 145.79 381.357 146.831 380.182 147.822C379.218 148.638 378.49 149.74 377.441 150.442C377.893 148.98 379.342 148.27 379.908 146.895C380.119 146.035 378.89 146.293 378.416 146.328C376.998 147.115 376.639 149.024 375.341 149.971C374.262 150.799 373.005 151.896 371.589 151.524C371.001 151.469 370.94 150.776 370.924 150.287C372.389 149.43 374.161 148.992 375.24 147.527C375.724 146.965 375.596 146.179 375.579 145.489C373.375 144.763 370.954 146.068 369.807 148.109C368.859 149.875 367.181 151.445 365.179 151.422C366.115 150.164 367.413 149.182 368.01 147.664C368.238 147.071 368.347 146.202 367.756 145.81C366.151 145.609 364.93 146.995 363.533 147.585C364.166 146.343 365.121 145.357 365.998 144.319C366.198 144 366.565 143.687 366.466 143.257C365.809 142.848 364.916 142.915 364.448 143.597Z" fill="#41210A" stroke="#41210A" stroke-width="0.0938"/>
<path d="M352.443 146.495C353.689 144.799 355.272 143.208 357.309 142.749C357.714 142.614 358.155 142.676 358.508 142.945C358.974 144.345 358.067 145.72 357.383 146.848C355.986 148.764 354.368 150.735 352.123 151.475C351.474 151.688 350.649 151.904 350.126 151.296C349.491 149.311 350.805 147.474 351.879 145.992C352.062 146.155 352.251 146.322 352.443 146.495Z" fill="#41210A" stroke="#41210A" stroke-width="0.0938"/>
<path d="M371.129 149.042C371.699 147.758 372.712 146.612 374.109 146.483C373.482 147.737 372.389 148.623 371.129 149.042Z" fill="#41210A" stroke="#41210A" stroke-width="0.0938"/>
<path d="M362.312 150.758C363.21 149.451 364.39 148.29 365.899 147.878C365.562 149.056 364.828 150.083 363.928 150.831C363.383 150.855 362.846 150.796 362.312 150.758Z" fill="#41210A" stroke="#41210A" stroke-width="0.0938"/>
<path d="M161.559 149.425C173.522 148.536 185.557 148.749 197.488 150.056C197.603 150.515 197.946 150.746 198.376 150.805C201.719 151.589 204.945 153.501 206.93 156.539C208.532 158.946 209.146 162.101 208.406 164.967C207.513 168.622 204.718 171.444 201.558 172.947C199.542 173.932 197.338 174.394 195.133 174.511C194.589 180.009 193.992 185.498 193.444 190.995C183.359 191.024 173.273 190.995 163.188 191.013C161.685 191.056 160.184 190.738 158.689 191.007C158.585 189.524 158.407 188.036 157.796 186.682C156.024 181.158 155.085 175.374 154.338 169.607C153.716 164.174 153.204 158.674 153.667 153.206C153.847 152.051 153.886 150.67 154.724 149.822C157.007 150.024 159.278 149.509 161.559 149.425ZM197.212 154.624C196.634 159.905 196.1 165.189 195.569 170.476C198.71 170.181 202.001 168.838 203.866 165.993C205.096 164.177 205.323 161.636 204.299 159.659C202.921 156.826 200.03 155.27 197.212 154.624Z" fill="#41210A" stroke="#41210A" stroke-width="0.0938"/>
<path d="M393.365 169.578C394.772 169.125 396.358 169.324 397.604 170.172C399.17 171.204 400.093 173.21 399.937 175.166C399.811 177.05 398.694 178.825 397.083 179.617C395.46 180.456 393.419 180.284 391.96 179.155C390.361 177.968 389.515 175.731 389.925 173.696C390.259 171.789 391.631 170.148 393.365 169.578Z" fill="#41210A" stroke="#41210A" stroke-width="0.0938"/>
<path d="M141.317 193.548C163.886 193.536 186.456 193.548 209.025 193.545C208.776 195.715 207.921 197.908 206.213 199.218C203.543 201.335 200.062 201.628 196.85 201.718C182.34 201.668 167.827 201.677 153.316 201.715C150.241 201.619 146.958 201.309 144.348 199.402C142.535 198.089 141.533 195.832 141.317 193.548Z" fill="#41210A" stroke="#41210A" stroke-width="0.0938"/>
<path d="M0.275757 0.246582C2.45274 0.442503 4.64067 0.307989 6.82039 0.346004C113.249 0.346004 219.674 0.348928 326.1 0.346004C383.986 0.366473 441.874 0.316761 499.763 0.372321C499.815 15.9437 499.771 31.518 499.785 47.0894C499.831 53.2536 498.049 59.45 494.563 64.3831C491.562 68.7021 487.331 72.0503 482.553 73.7639C477.161 75.7231 471.112 75.5594 465.832 73.2814C460.944 71.1935 456.744 67.395 453.942 62.6432C451.431 58.5347 450.18 53.698 449.794 48.8439C449.531 58.6136 443.975 68.0091 435.763 72.3574C430.291 75.34 423.73 75.9278 417.865 74.0008C410.304 71.6117 404.165 65.0849 401.52 57.2012C400.597 54.5168 400.137 51.6774 399.929 48.8351C399.657 54.7127 397.669 60.5085 394.208 65.1024C391.746 68.3921 388.575 71.0853 384.974 72.8135C380.169 75.1529 374.629 75.7436 369.492 74.4365C364.546 73.2288 359.993 70.2899 356.646 66.2253C352.761 61.6285 350.532 55.6105 350.033 49.4726C349.598 54.1308 348.314 58.7335 345.92 62.687C343.146 67.3921 338.976 71.138 334.151 73.2346C329.101 75.4336 323.345 75.7085 318.126 74.0329C314.208 72.7551 310.568 70.4596 307.709 67.316C303.158 62.535 300.538 55.8707 300.116 49.1012C299.793 53.9466 298.418 58.7277 295.929 62.8069C293.084 67.5558 288.829 71.3456 283.9 73.3779C278.809 75.4951 273.039 75.6793 267.834 73.9043C263.452 72.4246 259.493 69.5765 256.513 65.8452C252.65 61.1343 250.588 55.0052 250.144 48.8088C249.933 56.3854 246.606 63.7836 241.217 68.7138C237 72.6469 231.49 74.9775 225.888 75.1061C218.338 75.3898 210.846 71.5649 206.158 65.275C202.634 60.7191 200.695 54.9408 200.282 49.0778C200.008 53.7536 198.704 58.3651 196.377 62.3478C193.556 67.2751 189.23 71.2199 184.188 73.3311C180.412 74.9365 176.25 75.4395 172.225 74.9073C166.915 74.1762 161.863 71.5064 158.092 67.4476C153.464 62.5642 150.649 55.7538 150.441 48.8029C150.055 53.6132 148.845 58.4118 146.386 62.5028C143.466 67.5237 138.976 71.4889 133.778 73.5358C128.775 75.4863 123.167 75.6442 118.093 73.9072C110.456 71.3368 104.289 64.5731 101.825 56.476C101.069 54.1805 100.746 51.7652 100.475 49.3615C100.064 54.1747 98.722 58.947 96.1808 62.9824C93.5629 67.2634 89.8114 70.7725 85.4218 72.8428C80.4819 75.264 74.7669 75.7348 69.5121 74.3107C61.1683 72.0737 54.3088 64.8539 51.806 56.1047C51.1049 53.815 50.7846 51.423 50.5381 49.0398C50.2287 54.859 48.2488 60.5904 44.8095 65.1317C41.058 70.1788 35.5594 73.7376 29.5898 74.7669C23.8037 75.8226 17.678 74.5184 12.7243 71.1585C6.53295 67.0675 2.23101 60.0026 1.03162 52.3588C0.525028 49.4609 0.65373 46.5016 0.6373 43.5716C0.645515 29.5383 0.629085 15.5051 0.645515 1.47478C0.66734 1.0215 0.615311 0.556547 0.275757 0.246582Z" fill="#8D613C" stroke="#8D613C" stroke-width="0.0938"/>
<path d="M325.051 99.7542C352.777 99.7542 380.503 99.76 408.228 99.7513C408.218 149.755 408.22 199.762 408.226 249.769C380.5 249.774 352.774 249.777 325.049 249.769C325.062 199.762 325.057 149.758 325.051 99.7542ZM329.225 144.456C329.23 177.058 329.214 209.663 329.233 242.268C354.174 242.268 379.112 242.256 404.053 242.271C404.061 197.259 404.088 152.244 404.036 107.231C379.109 107.228 354.179 107.24 329.249 107.226C329.189 119.636 329.241 132.046 329.225 144.456Z" fill="#8D613C" stroke="#8D613C" stroke-width="0.0938"/>
<path d="M66.2725 103.664C141.435 103.676 216.597 103.667 291.761 103.676C291.789 134.038 291.764 164.397 291.772 194.756C291.756 199.276 291.811 203.797 291.745 208.315C234.927 208.271 178.109 208.312 121.291 208.295C102.931 208.309 84.5701 208.274 66.2123 208.309C66.2479 187.416 66.2095 166.522 66.2315 145.629C66.2534 131.643 66.1657 117.653 66.2725 103.664ZM75.0927 204.224C144.373 204.204 213.653 204.233 282.933 204.21C282.936 172.067 282.927 139.921 282.936 107.778C213.653 107.787 144.37 107.79 75.0873 107.775C75.0708 139.924 75.0599 172.076 75.0927 204.224Z" fill="#8D613C" stroke="#8D613C" stroke-width="0.0938"/>
<path d="M350.838 143.073C352.733 141.17 355.022 139.585 357.583 138.956C358.727 138.573 359.746 139.74 359.856 140.886C359.439 141.056 359.02 141.225 358.612 141.398C359.229 141.714 360.108 141.889 360.28 142.722C360.628 144.214 360.16 145.766 359.546 147.109C358.254 149.711 356.115 151.916 353.478 152.881C352.188 153.323 350.63 153.463 349.477 152.571C348.374 151.746 347.99 150.214 347.96 148.849C347.977 146.553 349.354 144.597 350.838 143.073ZM352.443 146.495C352.251 146.322 352.062 146.155 351.879 145.992C350.805 147.474 349.491 149.311 350.126 151.296C350.649 151.904 351.474 151.688 352.123 151.475C354.368 150.735 355.986 148.764 357.383 146.848C358.068 145.72 358.974 144.345 358.508 142.945C358.155 142.676 357.714 142.614 357.309 142.749C355.272 143.208 353.689 144.799 352.443 146.495Z" fill="#8D613C" stroke="#8D613C" stroke-width="0.0938"/>
<path d="M364.448 143.597C364.916 142.915 365.809 142.848 366.466 143.258C366.565 143.687 366.198 144 365.998 144.319C365.121 145.357 364.166 146.343 363.533 147.585C364.93 146.995 366.151 145.609 367.756 145.81C368.347 146.202 368.238 147.071 368.01 147.664C367.413 149.182 366.115 150.164 365.179 151.422C367.181 151.445 368.859 149.875 369.807 148.109C370.954 146.068 373.375 144.764 375.579 145.489C375.596 146.179 375.724 146.965 375.24 147.527C374.161 148.992 372.389 149.431 370.924 150.287C370.94 150.776 371.001 151.469 371.589 151.524C373.005 151.896 374.262 150.799 375.341 149.971C376.639 149.024 376.998 147.115 378.416 146.328C378.89 146.293 380.119 146.036 379.908 146.895C379.342 148.27 377.893 148.98 377.441 150.442C378.49 149.74 379.218 148.638 380.182 147.822C381.357 146.831 382.554 145.79 384.011 145.316C384.139 145.875 384.325 146.433 384.358 147.018C383.786 148.463 381.757 149.311 382.113 151.083C383.411 150.951 384.251 149.656 385.322 148.98C385.243 149.483 385.24 150.074 384.848 150.442C383.948 151.439 383.006 152.428 381.883 153.135C381.291 153.519 380.243 153.665 379.939 152.823C379.421 151.34 380.571 150.045 381.127 148.796C379.462 149.887 378.616 151.89 377.061 153.089C375.946 153.159 375.957 151.703 375.73 150.89C374.289 152.103 372.712 153.627 370.74 153.428C369.514 153.223 369.1 151.79 368.895 150.676C367.613 151.811 366.214 153.074 364.47 153.153C363.29 153.106 362.126 152.805 360.94 152.826C360.411 153.972 359.897 155.124 359.344 156.256C359.048 156.782 358.774 157.481 358.109 157.519C357.353 156.589 357.843 155.247 358.311 154.293C359.45 152.252 360.877 150.384 361.789 148.197C360.778 149.097 359.891 150.144 358.862 151.018C358.873 150.404 358.985 149.787 359.431 149.363C361.107 147.442 362.808 145.547 364.448 143.597ZM371.129 149.042C372.389 148.623 373.482 147.737 374.109 146.483C372.712 146.612 371.699 147.758 371.129 149.042ZM362.312 150.758C362.846 150.796 363.383 150.855 363.927 150.831C364.828 150.083 365.562 149.056 365.899 147.878C364.39 148.29 363.21 149.451 362.312 150.758Z" fill="#8D613C" stroke="#8D613C" stroke-width="0.0938"/>
<path d="M329.225 144.456C329.241 132.046 329.189 119.636 329.249 107.225C354.179 107.24 379.109 107.228 404.036 107.231C404.088 152.244 404.061 197.259 404.053 242.271C379.112 242.256 354.174 242.268 329.233 242.268C329.214 209.663 329.23 177.058 329.225 144.456ZM341.92 134.766C341.928 143.693 341.917 152.618 341.925 161.545C358.413 161.551 374.9 161.548 391.388 161.545C391.377 152.618 391.382 143.693 391.382 134.766C374.895 134.774 358.407 134.771 341.92 134.766ZM393.365 169.578C391.631 170.148 390.26 171.789 389.925 173.695C389.515 175.731 390.361 177.968 391.96 179.155C393.42 180.284 395.46 180.456 397.083 179.617C398.694 178.825 399.811 177.05 399.937 175.166C400.093 173.21 399.17 171.204 397.604 170.172C396.358 169.324 394.772 169.125 393.365 169.578Z" fill="#E6E6E6" stroke="#E6E6E6" stroke-width="0.0938"/>
<path d="M75.0927 204.224C75.0599 172.076 75.0708 139.924 75.0873 107.775C144.37 107.79 213.653 107.787 282.936 107.778C282.927 139.921 282.936 172.067 282.933 204.209C213.653 204.233 144.373 204.204 75.0927 204.224ZM158.138 110.761C159.76 112.279 161.225 114.118 161.822 116.375C162.35 118.44 162.265 120.759 161.334 122.686C160.537 124.206 159.1 125.136 157.906 126.265C155.909 128.098 154.699 130.833 154.54 133.631C154.286 137.351 155.77 141.026 158.078 143.76C159.521 143.766 160.964 143.769 162.41 143.763C160.543 142.164 159.004 139.991 158.511 137.45C158.256 135.88 158.289 134.225 158.755 132.704C159.253 131.058 160.611 129.999 161.739 128.859C163.412 127.286 165.058 125.449 165.592 123.06C166.671 118.715 165.16 114.03 162.405 110.761C160.981 110.752 159.56 110.755 158.138 110.761ZM170.598 110.755C171.8 111.852 172.901 113.112 173.64 114.621C174.752 116.829 174.938 119.548 174.158 121.911C173.498 123.896 171.721 125.025 170.302 126.344C167.501 128.967 166.419 133.318 167.284 137.143C167.868 139.576 168.914 141.997 170.653 143.734C172.057 143.831 173.47 143.74 174.881 143.76C172.977 142.079 171.354 139.833 170.959 137.172C170.738 135.058 170.795 132.643 172.192 130.967C174.13 128.677 176.836 126.932 177.835 123.888C179.35 119.364 177.844 114.173 174.851 110.74C173.432 110.767 172.014 110.755 170.598 110.755ZM185.303 110.77C186.341 111.755 187.346 112.814 188.052 114.106C189.451 116.519 189.739 119.668 188.693 122.288C187.934 124.119 186.231 125.139 184.906 126.443C182.575 128.651 181.472 132.099 181.716 135.377C181.948 138.503 183.312 141.436 185.245 143.76C186.686 143.775 188.126 143.766 189.566 143.76C188.485 142.784 187.488 141.678 186.765 140.365C185.462 138.131 185.199 135.28 185.911 132.78C186.436 130.988 187.943 129.873 189.15 128.628C190.722 127.133 192.228 125.376 192.746 123.136C193.871 118.773 192.354 114.024 189.561 110.755C188.14 110.758 186.721 110.749 185.303 110.77ZM161.559 149.425C159.278 149.509 157.007 150.024 154.724 149.822C153.886 150.67 153.847 152.051 153.667 153.206C153.204 158.674 153.716 164.174 154.338 169.607C155.085 175.374 156.024 181.158 157.796 186.682C158.407 188.036 158.585 189.524 158.689 191.007C160.184 190.738 161.685 191.056 163.188 191.013C173.273 190.995 183.359 191.024 193.444 190.995C193.992 185.498 194.589 180.009 195.133 174.511C197.338 174.394 199.542 173.932 201.558 172.947C204.718 171.444 207.513 168.622 208.406 164.967C209.146 162.101 208.532 158.946 206.93 156.539C204.945 153.501 201.719 151.589 198.376 150.805C197.946 150.746 197.603 150.515 197.488 150.056C185.557 148.749 173.522 148.536 161.559 149.425ZM141.317 193.548C141.533 195.832 142.535 198.089 144.348 199.402C146.958 201.309 150.241 201.619 153.316 201.715C167.827 201.677 182.34 201.668 196.85 201.718C200.062 201.627 203.543 201.335 206.213 199.218C207.921 197.908 208.776 195.715 209.025 193.545C186.456 193.548 163.886 193.536 141.317 193.548Z" fill="#E6E6E6" stroke="#E6E6E6" stroke-width="0.0938"/>
<path d="M197.212 155.411C200.03 156.057 202.921 157.613 204.299 160.446C205.323 162.423 205.096 164.964 203.866 166.78C202.001 169.625 198.71 170.968 195.569 171.263C196.1 165.976 196.634 160.692 197.212 155.411Z" fill="#E6E6E6" stroke="#E6E6E6" stroke-width="0.0938"/>
</svg>
